<svg xmlns="http://www.w3.org/2000/svg" version="1.1" xmlns:xlink="http://www.w3.org/1999/xlink" xmlns:svgjs="http://svgjs.dev/svgjs" width="1000" height="1000" viewBox="0 0 1000 1000"><rect width="1000" height="1000" fill="#000000"></rect><g transform="matrix(0.7,0,0,0.7,149.5757575757575,437.5442915349345)"><svg viewBox="0 0 396 71" data-background-color="#333333" preserveAspectRatio="xMidYMid meet" height="179" width="1000" xmlns="http://www.w3.org/2000/svg" xmlns:xlink="http://www.w3.org/1999/xlink"><g id="tight-bounds" transform="matrix(1,0,0,1,0.24000000000003752,-0.11009336776012901)"><svg viewBox="0 0 395.5199999999999 71.22018673552024" height="71.22018673552024" width="395.5199999999999"><g><svg viewBox="0 0 501.1826690609992 90.24656977935582" height="71.22018673552024" width="395.5199999999999"><g transform="matrix(1,0,0,1,105.66266906099924,12.472572234339339)"><svg viewBox="0 0 395.52 65.30142531067715" height="65.30142531067715" width="395.52"><g><svg viewBox="0 0 395.52 65.30142531067715" height="65.30142531067715" width="395.52"><g><svg viewBox="0 0 395.52 65.30142531067715" height="65.30142531067715" width="395.52"><g transform="matrix(1,0,0,1,0,0)"><svg width="395.52" viewBox="0.699999988079071 -32.099998474121094 197.73001098632812 32.54999923706055" height="65.30142531067715" data-palette-color="#7fc37e"><g class="undefined-text-0" data-fill-palette-color="primary" id="text-0"><path d="M17.1-32.05L27.8 0 23.7 0 22.95-3.2 21.15-8.7 13.95-8.85 7.45-8.7 5.5-3.4 4.7 0 0.7 0 12.45-32.05 17.1-32.05ZM14.3-12L20.05-12.1 14.85-27.9 14.5-27.9 8.7-12.1 14.3-12ZM52.7-24.9L52.55-12.25 52.55-8.65Q52.6-4.4 49.97-2.05 47.35 0.3 42.45 0.3L42.45 0.3Q37.6 0.3 35.05-2.02 32.5-4.35 32.6-8.65L32.6-8.65 32.65-12.45 32.6-24.9 36.35-24.9 36.15-9.25Q36.1-6.1 37.72-4.5 39.35-2.9 42.6-2.9L42.6-2.9Q45.8-2.9 47.45-4.5 49.1-6.1 49.05-9.25L49.05-9.25 48.9-24.9 52.7-24.9ZM76.4-24.9L76.59-24.6 76.34-21.45 71.7-21.8 69.2-21.8 69.05-7.8 69.2 0 65.45 0 65.59-7.5 65.5-21.8 63-21.8 58.25-21.45 57.95-21.8 58.25-24.9 76.4-24.9ZM92.49-25.2Q97.94-25.2 100.87-22 103.79-18.8 103.79-12.95L103.79-12.95Q103.79-6.6 100.67-3.13 97.54 0.35 91.74 0.35L91.74 0.35Q86.34 0.35 83.39-2.93 80.44-6.2 80.44-12.25L80.44-12.25Q80.44-18.45 83.59-21.83 86.74-25.2 92.49-25.2L92.49-25.2ZM92.14-22.05Q88.19-22.05 86.27-19.8 84.34-17.55 84.34-12.7L84.34-12.7Q84.34-7.5 86.24-5.15 88.14-2.8 92.04-2.8L92.04-2.8Q96.04-2.8 97.99-5.1 99.94-7.4 99.94-12.3L99.94-12.3Q99.94-17.35 98.02-19.7 96.09-22.05 92.14-22.05L92.14-22.05Z" fill="#ffffff" data-fill-palette-color="primary"></path><path d="M121.49-12.95Q124.79-7.5 129.79-0.95L129.79-0.95 129.74-0.45Q127.94 0.25 126.04 0.45L126.04 0.45 125.49 0.1Q121.39-6.05 118.14-11.9L118.14-11.9 112.29-11.9 112.29-10 112.49 0 108.44 0 108.69-9.65 108.44-32.05 118.24-32.1Q122.94-32.1 125.52-29.73 128.09-27.35 128.09-22.95L128.09-22.95Q128.09-19.65 126.37-17.03 124.64-14.4 121.49-12.95L121.49-12.95ZM112.49-28.65L112.34-15.3 118.34-15.15Q123.94-16.75 123.94-22.6L123.94-22.6Q123.94-25.65 122.29-27.18 120.64-28.7 117.34-28.8L117.34-28.8 112.49-28.65ZM144.59-3L151.24-3.2 151.54-2.9 151.19 0 136.04 0 136.19-7.5 136.04-24.9 151.29-24.9 151.54-24.6 151.24-21.7 144.94-21.9 139.74-21.85 139.69-14.3 144.64-14.25 148.99-14.4 149.24-14.05 148.94-11.1 144.34-11.25 139.69-11.2 139.64-7.8 139.69-3.05 144.59-3ZM165.14-25.15Q168.19-25.15 171.24-23.95L171.24-23.95 170.59-20.25 169.99-20.1Q168.59-21.2 167.34-21.73 166.09-22.25 164.74-22.25L164.74-22.25Q162.59-22.25 161.34-21.13 160.09-20 160.09-18.55L160.09-18.55Q160.09-17.1 161.31-16.2 162.54-15.3 165.09-14.2L165.09-14.2Q167.34-13.2 168.66-12.4 169.99-11.6 170.96-10.28 171.94-8.95 171.94-7.05L171.94-7.05Q171.94-5.1 170.88-3.43 169.84-1.75 167.81-0.73 165.79 0.3 162.99 0.3L162.99 0.3Q161.24 0.3 159.31-0.13 157.39-0.55 155.74-1.4L155.74-1.4 156.19-5.35 156.69-5.55Q158.09-4.15 159.96-3.38 161.84-2.6 163.44-2.6L163.44-2.6Q165.54-2.6 166.89-3.73 168.24-4.85 168.24-6.45L168.24-6.45Q168.24-7.95 167.01-8.85 165.79-9.75 163.19-10.95L163.19-10.95Q161.04-11.9 159.66-12.7 158.29-13.5 157.34-14.83 156.39-16.15 156.39-18.05L156.39-18.05Q156.39-20.05 157.46-21.65 158.54-23.25 160.51-24.2 162.49-25.15 165.14-25.15L165.14-25.15ZM189.68-24.9L198.43 0 194.68 0 194.08-2.7 192.78-6.4 186.83-6.45 181.53-6.4 180.18-2.9 179.48 0 175.78 0 185.38-24.9 189.68-24.9ZM187.13-9.4L191.73-9.45 187.58-21.25 187.28-21.25 182.73-9.45 187.13-9.4Z" fill="#ffffff" data-fill-palette-color="accent"></path></g></svg></g></svg></g></svg></g></svg></g><g><svg viewBox="0 0 90.24656977935582 90.24656977935582" height="90.24656977935582" width="90.24656977935582"><g><svg xmlns="http://www.w3.org/2000/svg" xmlns:xlink="http://www.w3.org/1999/xlink" version="1.1" x="0" y="0" viewBox="5 5 90 90" enable-background="new 0 0 100 100" xml:space="preserve" height="90.24656977935582" width="90.24656977935582" class="icon-icon-0" data-fill-palette-color="accent" id="icon-0"><path fill="#ffffff" d="M95 52c0-12.871-5.692-24.431-14.682-32.318C72.431 10.692 60.871 5 48 5 24.29 5 5 24.29 5 48c0 12.868 5.69 24.426 14.677 32.313C27.564 89.306 39.126 95 52 95c0.084 0 0.166-0.006 0.25-0.006S52.416 95 52.5 95C75.972 95 95 75.972 95 52.5c0-0.084-0.006-0.166-0.006-0.25S95 52.084 95 52zM21.828 73.371c-4.245-5.978-6.77-13.259-6.822-21.121 0.135-20.511 16.732-37.109 37.244-37.244 7.862 0.052 15.144 2.577 21.121 6.822C80.224 28.473 84.5 37.758 84.5 48c0 20.126-16.374 36.5-36.5 36.5C37.758 84.5 28.473 80.224 21.828 73.371zM6 48C6 24.841 24.841 6 48 6c9.858 0 18.926 3.422 26.1 9.13C67.637 11.242 60.076 9 52 9 28.29 9 9 28.29 9 52c0 8.074 2.241 15.633 6.127 22.095C9.421 66.923 6 57.856 6 48zM52 89c-10.08 0-19.227-4.055-25.905-10.615C32.269 82.854 39.838 85.5 48 85.5c20.678 0 37.5-16.822 37.5-37.5 0-8.162-2.646-15.731-7.115-21.905C84.945 32.773 89 41.92 89 52 89 72.402 72.402 89 52 89z" data-fill-palette-color="accent"></path></svg></g></svg></g></svg></g><defs></defs></svg><rect width="395.5199999999999" height="71.22018673552024" fill="none" stroke="none" visibility="hidden"></rect></g></svg></g></svg>